#!OML:ASF F:\VICON\USERDATA\INSTALL\rory3\rory3.ASF
:FULLY-SPECIFIED
:DEGREES
63
root 0.143294 16.0365 -29.1114 29.3788 -0.000679669 -10.4735
lowerback -6.66018 4.01917 13.0865
upperback -6.37225 4.84177 2.11402
thorax -2.16012 2.02028 -4.7987
lowerneck -14.6019 -5.17877 -6.26996
upperneck 8.39158 -6.33797 5.22683
head 5.26733 -2.94953 2.082
rclavicle 4.96962e-015 -3.97569e-016
rhumerus -30.3998 20.4526 -85.359
rradius 63.8356
rwrist 9.66584
rhand -26.6385 -44.5108
rfingers 7.12502
rthumb -0.0709114 285.509
lclavicle 4.96962e-015 -3.97569e-016
lhumerus -62.9199 -7.07869 81.3505
lradius 47.652
lwrist 8.15485
lhand -36.6411 -43.7444
lfingers 7.12502
lthumb -9.72841 -13.9891
rfemur -28.5882 4.19791 31.6117
rtibia 72.1402
rfoot 0.343557 -12.2986
rtoes -33.3947
lfemur -65.615 0.634339 -16.1468
ltibia 64.8927
lfoot -24.9153 6.63707
ltoes 4.71392
64
root 0.139854 16.0123 -28.7718 28.2512 -0.744479 -10.122
lowerback -5.08253 3.80569 12.6371
upperback -6.25492 4.82084 1.92744
thorax -2.92497 1.98101 -4.8553
lowerneck -15.2356 -5.076 -5.97959
upperneck 9.0493 -6.22778 5.08186
head 5.55696 -2.88345 1.98379
rclavicle -1.82882e-014 -3.18055e-014
rhumerus -31.3316 19.965 -85.8441
rradius 63.0949
rwrist 9.15792
rhand -25.5446 -47.5023
rfingers 7.12502
rthumb 0.98557 282.52
lclavicle -1.82882e-014 -3.18055e-014
lhumerus -61.9352 -7.47388 81.6983
lradius 47.9033
lwrist 7.84261
lhand -36.9153 -42.5487
lfingers 7.12502
lthumb -9.99296 -12.806
rfemur -29.9799 4.04035 30.6392
rtibia 75.3344
rfoot 1.19716 -13.5882
rtoes -23.9504
lfemur -62.911 0.376926 -16.5487
ltibia 65.3786
lfoot -26.4926 7.89556
ltoes 3.15285
65
root 0.101017 15.9358 -28.5312 28.6607 0.0750943 -8.78397
lowerback -5.52753 3.25295 11.1208
upperback -5.9817 4.03754 1.794
thorax -2.575 1.67304 -4.17604
lowerneck -16.4464 -5.09702 -5.70948
upperneck 9.20628 -6.24319 5.01642
head 5.79393 -2.86582 1.89428
rclavicle -2.67365e-014 -5.24792e-014
rhumerus -30.9066 19.2117 -85.6446
rradius 61.9428
rwrist 9.54399
rhand -25.2057 -47.1626
rfingers 7.12502
rthumb 1.31294 282.862
lclavicle -2.67365e-014 -5.24792e-014
lhumerus -59.4891 -7.93693 82.1622
lradius 48.2177
lwrist 7.35518
lhand -37.3333 -40.1214
lfingers 7.12502
lthumb -10.3962 -10.3985
rfemur -33.7164 2.74094 29.6557
rtibia 79.1544
rfoot -0.157199 -15.3528
rtoes -21.416
lfemur -62.8954 -1.09237 -17.2439
ltibia 66.1047
lfoot -27.2974 8.28227
ltoes 1.68141
66
root 0.0889248 15.8686 -28.2124 27.4786 -0.422838 -7.95945
lowerback -3.91387 2.85554 10.3483
upperback -6.17336 3.75601 1.48391
thorax -3.73856 1.48929 -4.1816
lowerneck -15.6699 -4.83625 -5.7265
upperneck 9.46398 -5.98199 5.31457
head 5.74575 -2.72837 2.03149
rclavicle -1.14798e-014 1.21259e-014
rhumerus -32.7969 18.6164 -86.5567
rradius 61.1074
rwrist 9.87425
rhand -25.4299 -47.2187
rfingers 7.12502
rthumb 1.09637 282.804
lclavicle -1.14798e-014 1.21259e-014
lhumerus -59.0355 -8.49062 82.5053
lradius 48.7195
lwrist 6.80423
lhand -38.0005 -37.5158
lfingers 7.12502
lthumb -11.0397 -7.82615
rfemur -34.8994 2.37652 28.3644
rtibia 82.4125
rfoot -2.1623 -16.7203
rtoes -18.3928
lfemur -60.4176 -1.60411 -18.112
ltibia 66.7412
lfoot -28.7179 8.87767
ltoes 1.15332
67
root 0.0538225 15.766 -27.9613 28.0074 -0.823097 -7.07199
lowerback -4.26781 2.72815 8.96606
upperback -6.33821 3.56645 1.23966
thorax -3.78059 1.44071 -3.66617
lowerneck -14.8031 -4.69742 -5.77418
upperneck 8.88287 -5.85656 5.68556
head 5.42756 -2.66006 2.18764
rclavicle -2.41026e-014 -1.11319e-014
rhumerus -33.6241 17.8355 -86.8228
rradius 60.1236
rwrist 10.1047
rhand -25.9623 -47.4731
rfingers 7.12502
rthumb 0.582185 282.548
lclavicle -2.41026e-014 -1.11319e-014
lhumerus -57.2866 -9.17345 82.9072
lradius 48.9893
lwrist 6.17807
lhand -37.6869 -35.7277
lfingers 7.12502
lthumb -10.7373 -6.02213
rfemur -39.0926 2.25333 27.108
rtibia 86.1818
rfoot -4.62972 -18.4553
rtoes -22.1671
lfemur -60.3925 -1.91252 -19.0273
ltibia 67.5141
lfoot -29.4219 9.15398
ltoes 0.443236
68
root 0.020306 15.7042 -27.6496 26.6623 -0.792256 -5.59856
lowerback -3.29611 2.21722 7.30014
upperback -5.74881 2.95938 0.982853
thorax -3.81978 1.21273 -3.05344
lowerneck -15.0439 -4.65561 -5.71395
upperneck 8.74477 -5.80969 5.80796
head 5.42321 -2.62309 2.21791
rclavicle 8.74653e-015 -6.55989e-015
rhumerus -34.2655 16.8678 -86.8323
rradius 59.3034
rwrist 10.6433
rhand -26.6308 -46.6736
rfingers 7.12502
rthumb -0.0634753 283.347
lclavicle 8.74653e-015 -6.55989e-015
lhumerus -55.1896 -9.98628 83.4047
lradius 49.367
lwrist 5.59851
lhand -36.1022 -34.0251
lfingers 7.12502
lthumb -9.20845 -4.2462
rfemur -40.3897 1.30926 25.5606
rtibia 89.1173
rfoot -6.67925 -19.2486
rtoes -18.8544
lfemur -57.6511 -2.69067 -20.4811
ltibia 67.8245
lfoot -30.7401 9.91116
ltoes -1.18317
69
root -0.0142797 15.6124 -27.3784 26.3667 -0.949197 -4.13228
lowerback -2.4325 1.72437 5.539
upperback -5.55218 2.35676 0.744094
thorax -4.2 0.969129 -2.35254
lowerneck -16.1752 -4.57886 -5.8226
upperneck 9.04123 -5.65791 5.96831
head 5.70069 -2.51911 2.28186
rclavicle 2.68359e-015 -3.18055e-015
rhumerus -34.6957 16.368 -86.8706
rradius 58.5801
rwrist 10.9262
rhand -27.4504 -46.4736
rfingers 7.12502
rthumb -0.855107 283.548
lclavicle 2.68359e-015 -3.18055e-015
lhumerus -53.0209 -10.6384 83.8843
lradius 49.7632
lwrist 5.02529
lhand -36.2747 -39.4387
lfingers 7.12502
lthumb -9.37486 -9.66719
rfemur -43.6547 0.706322 23.8005
rtibia 92.21
rfoot -6.48663 -19.3534
rtoes -8.52325
lfemur -56.3098 -3.31186 -22.0477
ltibia 68.0671
lfoot -31.5455 10.8767
ltoes -3.74863
70
root -0.0439878 15.5353 -27.0762 25.6172 -1.69956 -2.81178
lowerback -2.63458 1.56088 3.7208
upperback -5.09983 2.10004 0.481848
thorax -3.66976 0.924918 -1.59528
lowerneck -14.2097 -4.36533 -6.173
upperneck 7.71321 -5.40367 6.43757
head 4.9731 -2.41878 2.5465
rclavicle 2.93207e-015 1.59028e-015
rhumerus -35.7672 15.683 -86.8602
rradius 58.4787
rwrist 10.975
rhand -27.6857 -47.751
rfingers 7.12502
rthumb -1.08231 282.272
lclavicle 2.93207e-015 1.59028e-015
lhumerus -51.1635 -11.4335 84.4234
lradius 50.107
lwrist 4.56619
lhand -36.3112 -41.9081
lfingers 7.12502
lthumb -9.41005 -12.1382
rfemur -46.174 0.600265 21.877
rtibia 94.7306
rfoot -7.96402 -19.6135
rtoes -6.37057
lfemur -53.989 -3.31071 -23.7915
ltibia 67.9823
lfoot -32.867 11.5623
ltoes -4.90302
71
root -0.0731849 15.4623 -26.7673 24.791 -2.45063 -1.50395
lowerback -1.47877 1.42477 2.155
upperback -5.06799 1.93542 -0.0335797
thorax -4.32364 0.881306 -1.28406
lowerneck -14.064 -4.25902 -6.02575
upperneck 7.84833 -5.32589 6.62982
head 4.98863 -2.36542 2.59208
rclavicle -1.74931e-014 9.93923e-017
rhumerus -37.2673 14.5242 -87.1171
rradius 58.677
rwrist 11.2608
rhand -27.054 -49.7164
rfingers 7.12502
rthumb -0.472233 280.304
lclavicle -1.74931e-014 9.93923e-017
lhumerus -49.5219 -12.4647 84.5535
lradius 50.7546
lwrist 4.29669
lhand -35.9971 -42.2636
lfingers 7.12502
lthumb -9.10701 -12.4802
rfemur -48.6447 0.456557 19.9798
rtibia 96.9312
rfoot -10.6889 -19.9599
rtoes -8.99467
lfemur -51.4622 -3.2486 -25.5365
ltibia 67.712
lfoot -34.3087 12.2282
ltoes -4.1775
72
root -0.105052 15.3805 -26.4752 24.6761 -2.7501 -0.0943713
lowerback -1.39714 1.10196 0.433756
upperback -4.83354 1.47145 -0.322952
thorax -4.17328 0.712551 -0.608826
lowerneck -14.3003 -4.14141 -5.98986
upperneck 7.67129 -5.15451 6.6381
head 4.96044 -2.27678 2.60197
rclavicle -2.55935e-015 2.5842e-015
rhumerus -38.0591 13.674 -86.9267
rradius 58.7646
rwrist 11.9272
rhand -26.8016 -50.9521
rfingers 7.12502
rthumb -0.228451 279.068
lclavicle -2.55935e-015 2.5842e-015
lhumerus -47.2045 -13.0375 84.6412
lradius 51.6364
lwrist 3.7829
lhand -35.4146 -41.5567
lfingers 7.12502
lthumb -8.5449 -11.7496
rfemur -52.2994 -0.0712092 18.2918
rtibia 98.7443
rfoot -10.7914 -19.9364
rtoes -7.61958
lfemur -49.901 -3.52634 -27.1787
ltibia 67.3468
lfoot -35.3417 13.0236
ltoes -4.08274
73
root -0.140066 15.3168 -26.1687 23.9522 -2.34721 1.24252
lowerback -0.270748 0.605923 -0.773223
upperback -4.35104 0.770744 -0.670331
thorax -4.32895 0.399916 -0.285219
lowerneck -16.0482 -4.13415 -5.77705
upperneck 8.12815 -5.12813 6.69909
head 5.38211 -2.21569 2.56555
rclavicle 9.49197e-015 -2.73329e-015
rhumerus -38.5621 12.6347 -86.845
rradius 59.0019
rwrist 12.7671
rhand -27.116 -51.0157
rfingers 7.12502
rthumb -0.532149 279.005
lclavicle 9.49197e-015 -2.73329e-015
lhumerus -44.5302 -13.9711 84.4938
lradius 52.5166
lwrist 3.24491
lhand -35.1379 -41.6898
lfingers 7.12502
lthumb -8.27783 -11.8719
rfemur -54.7593 -1.06303 17.0736
rtibia 99.991
rfoot -12.6432 -19.7841
rtoes -7.19719
lfemur -47.3312 -4.02143 -28.4874
ltibia 66.7899
lfoot -36.5154 13.6149
ltoes -6.41503
